<?xml version="1.0" encoding="UTF-8" standalone="no"?>
<!DOCTYPE svg PUBLIC "-//W3C//DTD SVG 1.1//EN" "http://www.w3.org/Graphics/SVG/1.1/DTD/svg11.dtd">
<svg width="100%" height="100%" viewBox="0 0 707 195" version="1.1" xmlns="http://www.w3.org/2000/svg" xmlns:xlink="http://www.w3.org/1999/xlink" xml:space="preserve" xmlns:serif="http://www.serif.com/" style="fill-rule:evenodd;clip-rule:evenodd;stroke-linejoin:round;stroke-miterlimit:2;">
    <g transform="matrix(1,0,0,1,-3562,-3306)">
        <g transform="matrix(1.16782,0,0,1.26061,4488.73,3485.79)">
            <g transform="matrix(1,0,0,1,-27.6862,3.08574)">
                <g transform="matrix(0.734443,0,0,0.680383,-1014.79,-305.105)">
                    <text x="578px" y="391.292px" style="font-family:'DINAlternate-Bold', 'DIN Alternate', sans-serif;font-weight:700;font-size:122.421px;fill:white;">Bluesquar<tspan x="1105.88px " y="391.292px ">e</tspan></text>
                </g>
                <g transform="matrix(0.8563,0,0,0.793269,-3094.39,-1702.75)">
                    <path d="M2871.2,2097.41L2893.2,2084.7L2893.2,2022.41L2893.2,2097.41C2893.03,2104.46 2889.72,2111.19 2884.05,2115.27C2883.25,2115.84 2883.03,2115.95 2882.2,2116.46L2817.25,2153.96C2811.06,2157.33 2803.57,2157.83 2797.2,2154.96C2796.31,2154.56 2796.11,2154.43 2795.25,2153.96L2730.3,2116.46C2729.47,2115.95 2729.25,2115.84 2728.46,2115.27C2722.82,2111.22 2719.47,2104.44 2719.3,2097.41L2719.3,2022.41C2719.32,2021.43 2719.31,2021.19 2719.41,2020.22C2720.1,2013.31 2724.3,2007.02 2730.3,2003.35L2795.25,1965.85C2796.11,1965.39 2796.31,1965.25 2797.2,1964.85C2800.53,1963.35 2804.17,1962.78 2807.9,1962.97C2810.46,1963.22 2812.97,1963.8 2815.3,1964.85C2816.19,1965.25 2816.4,1965.39 2817.25,1965.85L2882.2,2003.35C2888.22,2007.03 2892.4,2013.26 2893.09,2020.22C2893.19,2021.19 2893.18,2021.43 2893.2,2022.41L2876.64,2031.82L2817.25,2066.26L2817.25,2128.55L2871.2,2097.41ZM2806.25,2134.91L2806.25,2134.91L2806.25,2134.91L2806.25,2134.91ZM2860.2,2016.06L2806.25,1984.91C2784.6,1997.41 2762.95,2009.91 2741.3,2022.41L2741.3,2097.41L2795.25,2128.55L2795.25,2059.91C2795.37,2056.03 2797.44,2052.43 2800.75,2050.38L2860.2,2016.06Z" style="fill:rgb(21,125,194);"/>
                </g>
            </g>
        </g>
    </g>
</svg>
