<?xml version="1.0" encoding="UTF-8" standalone="no"?>
<!DOCTYPE svg PUBLIC "-//W3C//DTD SVG 1.1//EN" "http://www.w3.org/Graphics/SVG/1.1/DTD/svg11.dtd">
<svg width="100%" height="100%" viewBox="0 0 372 198" version="1.1" xmlns="http://www.w3.org/2000/svg" xmlns:xlink="http://www.w3.org/1999/xlink" xml:space="preserve" xmlns:serif="http://www.serif.com/" style="fill-rule:evenodd;clip-rule:evenodd;stroke-linejoin:round;stroke-miterlimit:2;">
    <g transform="matrix(1,0,0,1,-1473,-3305)">
        <g transform="matrix(1.16782,0,0,1.26061,2230.4,3485.79)">
            <g transform="matrix(1,0,0,0.974359,-88.3973,61.8081)">
                <g transform="matrix(0.654962,0,0,0.622719,-762.692,-343.009)">
                    <text x="578px" y="391.292px" style="font-family:'DINAlternate-Bold', 'DIN Alternate', sans-serif;font-weight:700;font-size:137.277px;fill:white;">D2d</text>
                </g>
                <g>
                    <g transform="matrix(0.8563,0,0,0.814145,-2909.55,-373.774)">
                        <path d="M2831.16,249.504C2832.04,249.576 2832.89,249.818 2833.68,250.237L2872.66,272.737C2874.3,273.777 2875.33,275.533 2875.41,277.5L2875.41,322.5C2875.33,324.444 2874.32,326.211 2872.66,327.263L2833.68,349.763C2831.96,350.667 2829.93,350.678 2828.18,349.763L2789.21,327.263C2785.17,324.706 2786.56,316.778 2792.18,317.004C2793,317.037 2793.43,317.065 2794.71,317.737L2830.93,338.649L2864.41,319.324L2864.41,280.675L2828.18,259.763C2828.18,259.763 2824.79,256.944 2825.6,253.684C2826.09,251.677 2827.8,250.026 2829.84,249.611C2830.67,249.441 2830.88,249.504 2831.16,249.504Z" style="fill:white;fill-opacity:0.5;"/>
                    </g>
                    <g transform="matrix(0.8563,0,0,0.814145,-2329.32,-377.087)">
                        <path d="M2124.27,299.751L2072.02,269.583L2071.29,269.129C2069.06,267.465 2068.64,266.74 2067.89,265.371C2065.42,260.91 2066.53,254.782 2070.61,251.495C2071.2,251.018 2071.38,250.935 2072.02,250.531L2147.79,206.781C2149.73,205.756 2151.85,205.253 2154.12,205.338C2155.75,205.522 2157.32,206 2158.79,206.781L2234.57,250.531C2237.87,252.601 2239.92,256.086 2240.07,260.057L2240.07,347.557C2239.93,351.446 2237.93,354.969 2234.57,357.083L2158.79,400.833C2155.35,402.652 2151.31,402.69 2147.79,400.833L2092.76,369.057C2090.71,369.889 2088.47,370.347 2086.12,370.347C2076.37,370.347 2068.45,362.428 2068.45,352.673C2068.45,342.919 2076.37,335 2086.12,335C2094.93,335 2102.25,341.463 2103.58,349.903L2153.29,378.605L2218.07,341.206L2218.07,266.408L2153.29,229.009L2099.52,260.057L2134.76,280.405C2136.88,279.501 2139.22,279 2141.67,279C2151.43,279 2159.35,286.919 2159.35,296.673C2159.35,304.256 2154.56,310.729 2147.85,313.236L2147.79,313.333L2147.71,313.287C2145.83,313.973 2143.79,314.347 2141.67,314.347C2132.97,314.347 2125.73,308.04 2124.27,299.751Z" style="fill:white;"/>
                    </g>
                </g>
            </g>
        </g>
    </g>
</svg>
