<?xml version="1.0" encoding="UTF-8" standalone="no"?><!DOCTYPE svg PUBLIC "-//W3C//DTD SVG 1.1//EN" "http://www.w3.org/Graphics/SVG/1.1/DTD/svg11.dtd"><svg width="100%" height="100%" viewBox="0 0 521 200" version="1.1" xmlns="http://www.w3.org/2000/svg" xmlns:xlink="http://www.w3.org/1999/xlink" xml:space="preserve" xmlns:serif="http://www.serif.com/" style="fill-rule:evenodd;clip-rule:evenodd;stroke-linejoin:round;stroke-miterlimit:2;"><g><g><path d="M212.998,136.98l25.378,0c5.606,0 10.34,-1.231 14.202,-3.691c3.896,-2.291 6.938,-5.196 9.126,-8.716c0.82,-1.333 1.521,-2.615 2.102,-3.846c0.547,-1.264 0.957,-2.7 1.23,-4.306c0.581,-3.179 0.872,-8.784 0.872,-16.817c0,-7.553 -0.188,-12.868 -0.564,-15.944c-0.478,-3.077 -1.624,-6.016 -3.435,-8.819c-5.059,-8.34 -12.647,-12.544 -22.764,-12.612l-26.147,0l0,74.751Zm11.33,-64.036l13.536,0c5.742,-0.137 10.185,1.966 13.33,6.306c1.538,1.744 2.512,4.016 2.922,6.819c0.308,2.803 0.461,7.451 0.461,13.946c0,6.665 -0.153,11.211 -0.461,13.637c-0.342,2.461 -1.145,4.495 -2.41,6.101c-2.871,4.341 -7.485,6.512 -13.842,6.512l-13.536,0l0,-53.321Z" style="fill-rule:nonzero;"/><path d="M306.103,136.98l10.716,0l0,-36.35c-0.069,-6.494 -2.102,-11.074 -6.101,-13.74c-3.999,-2.598 -9.349,-3.863 -16.048,-3.794c-7.929,-0.137 -13.928,2.461 -17.995,7.793l8.408,6.408c0.923,-1.538 2.187,-2.632 3.794,-3.281c1.538,-0.547 3.64,-0.82 6.306,-0.82c7.349,-0.137 10.989,2.136 10.92,6.819l0,5.588l-14.817,0c-5.673,0.068 -9.98,1.606 -12.919,4.614c-2.94,2.94 -4.41,6.648 -4.41,11.126c0,4.682 1.692,8.528 5.076,11.535c3.213,3.077 7.793,4.649 13.74,4.717c3.623,0 6.46,-0.444 8.511,-1.333c2.085,-0.854 3.623,-2.187 4.614,-3.999l0.205,0l0,4.717Zm0,-18.713c0,3.999 -0.837,6.562 -2.512,7.69c-1.846,1.128 -5.007,1.658 -9.485,1.589c-3.554,0 -6.101,-0.7 -7.639,-2.102c-1.606,-1.264 -2.41,-2.802 -2.41,-4.614c-0.068,-4.136 3.008,-6.272 9.229,-6.409l12.817,0l0,3.846Z" style="fill-rule:nonzero;"/><path d="M331.277,83.762l-5.332,0l0,8.152l5.332,0l0,31.941c0,4.204 1.23,7.417 3.691,9.639c2.393,2.324 5.469,3.486 9.229,3.486l5.588,0l0,-10.1l-3.999,0c-2.598,0.068 -3.862,-1.248 -3.794,-3.948l0,-31.018l7.793,0l0,-8.152l-7.793,0l0,-16.201l-10.715,0l0,16.201Z" style="fill-rule:nonzero;"/><path d="M387.776,136.98l10.715,0l0,-36.35c-0.068,-6.494 -2.102,-11.074 -6.101,-13.74c-3.999,-2.598 -9.348,-3.863 -16.047,-3.794c-7.93,-0.137 -13.929,2.461 -17.996,7.793l8.408,6.408c0.923,-1.538 2.188,-2.632 3.794,-3.281c1.538,-0.547 3.64,-0.82 6.306,-0.82c7.349,-0.137 10.989,2.136 10.921,6.819l0,5.588l-14.817,0c-5.674,0.068 -9.981,1.606 -12.92,4.614c-2.939,2.94 -4.409,6.648 -4.409,11.126c0,4.682 1.692,8.528 5.076,11.535c3.212,3.077 7.792,4.649 13.74,4.717c3.623,0 6.46,-0.444 8.511,-1.333c2.084,-0.854 3.623,-2.187 4.614,-3.999l0.205,0l0,4.717Zm0,-18.713c0,3.999 -0.838,6.562 -2.512,7.69c-1.846,1.128 -5.008,1.658 -9.485,1.589c-3.555,0 -6.101,-0.7 -7.639,-2.102c-1.607,-1.264 -2.41,-2.802 -2.41,-4.614c-0.068,-4.136 3.008,-6.272 9.228,-6.409l12.818,0l0,3.846Z" style="fill-rule:nonzero;"/><path d="M424.331,136.98l8.818,0l19.534,-53.218l-11.382,0l-12.458,37.273l-0.205,0l-12.51,-37.273l-11.331,0l19.534,53.218Z" style="fill-rule:nonzero;"/><path d="M459.246,136.98l10.715,0l0,-53.218l-10.715,0l0,53.218Zm0,-64.036l10.715,0l0,-10.715l-10.715,0l0,10.715Z" style="fill-rule:nonzero;"/><path d="M480.676,136.98l39.683,0l0,-10.1l-26.66,0l26.66,-34.607l0,-8.511l-38.247,0l0,9.434l25.225,0l-26.661,35.273l0,8.511Z" style="fill-rule:nonzero;"/></g><g><path d="M55.838,66.425c1.39,0.108 2.198,0.191 4.062,1.204l36.828,21.286c1.245,0.764 1.406,0.97 1.879,1.442c1.681,1.684 2.594,4.021 2.657,6.422l0,42.571c-0.182,6.947 -9.498,11.837 -15.142,6.749c-1.884,-1.697 -2.935,-4.193 -3.002,-6.749l0,-37.327l-32.292,-18.664c0,0 -3.304,-2.065 -4.227,-5.514c-1.386,-5.181 2.738,-11.13 8.288,-11.42c0.317,-0.018 0.633,-0.008 0.949,0Z" style="fill:#2372ba;fill-opacity:0.5;"/><path d="M87.768,0.68c1.634,0.183 3.2,0.661 4.678,1.442l75.777,43.751c3.295,2.07 5.351,5.555 5.5,9.526l0,87.5c-0.145,3.889 -2.135,7.412 -5.5,9.526l-81.278,46.725l-21.65,-12.501l86.428,-50.101l0,-74.798l-64.778,-37.4l-86.602,49.799l0,-25l81.103,-47.027c0,0 3.554,-1.547 6.322,-1.442Z" style="fill:#2372ba;"/></g></g></svg>