<?xml version="1.0" encoding="UTF-8" standalone="no"?>
<!DOCTYPE svg PUBLIC "-//W3C//DTD SVG 1.1//EN" "http://www.w3.org/Graphics/SVG/1.1/DTD/svg11.dtd">
<svg width="100%" height="100%" viewBox="0 0 308 314" version="1.1" xmlns="http://www.w3.org/2000/svg" xmlns:xlink="http://www.w3.org/1999/xlink" xml:space="preserve" xmlns:serif="http://www.serif.com/" style="fill-rule:evenodd;clip-rule:evenodd;stroke-linejoin:round;stroke-miterlimit:2;">
    <g transform="matrix(1,0,0,1,-358,-233)">
        <g transform="matrix(1.16782,0,0,1.26061,1087.21,472.727)">
            <g transform="matrix(1,0,0,1,-6.6288,25.0308)">
                <g transform="matrix(0.734443,0,0,0.680383,-1048.79,-232.892)">
                    <text x="578px" y="391.292px" style="font-family:'DINAlternate-Bold', 'DIN Alternate', sans-serif;font-weight:700;font-size:122.421px;">Dataviz</text>
                </g>
                <g>
                    <g transform="matrix(0.749262,0,0,0.694111,-875.359,-345.252)">
                        <path d="M520.555,187.464C522.422,187.674 524.212,188.22 525.901,189.113L612.503,239.113C616.269,241.479 618.619,245.462 618.789,250L618.789,350C618.623,354.445 616.349,358.471 612.503,360.887L519.615,414.286L494.872,400L593.646,342.742L593.646,257.258L519.615,214.516L420.641,271.429L420.641,242.857L513.33,189.113C513.33,189.113 517.392,187.345 520.555,187.464Z" style="fill:rgb(35,114,186);"/>
                    </g>
                    <g transform="matrix(0.971044,0,0,0.900539,-902.013,-454.087)">
                        <path d="M400.955,323.261C402.18,323.357 402.893,323.43 404.537,324.322L437.013,343.072C438.111,343.745 438.253,343.927 438.67,344.343C440.152,345.826 440.957,347.885 441.013,350L441.013,387.5C440.852,393.619 432.637,397.927 427.66,393.445C425.999,391.95 425.072,389.751 425.013,387.5L425.013,354.619L396.537,338.178C396.537,338.178 393.623,336.359 392.809,333.321C391.587,328.757 395.224,323.517 400.118,323.261C400.397,323.246 400.676,323.254 400.955,323.261Z" style="fill:rgb(35,114,186);fill-opacity:0.5;"/>
                    </g>
                </g>
            </g>
        </g>
    </g>
</svg>
