<?xml version="1.0" encoding="UTF-8" standalone="no"?>
<!DOCTYPE svg PUBLIC "-//W3C//DTD SVG 1.1//EN" "http://www.w3.org/Graphics/SVG/1.1/DTD/svg11.dtd">
<svg width="100%" height="100%" viewBox="0 0 321 313" version="1.1" xmlns="http://www.w3.org/2000/svg" xmlns:xlink="http://www.w3.org/1999/xlink" xml:space="preserve" xmlns:serif="http://www.serif.com/" style="fill-rule:evenodd;clip-rule:evenodd;stroke-linejoin:round;stroke-miterlimit:2;">
    <g transform="matrix(1,0,0,1,-4880,-2292)">
        <g transform="matrix(1.16782,0,0,1.26061,5615.91,2536.58)">
            <g transform="matrix(0.734443,0,0,0.680383,-1060.62,-212.914)">
                <g>
                    <text x="578px" y="391.292px" style="font-family:'DINAlternate-Bold', 'DIN Alternate', sans-serif;font-weight:700;font-size:122.421px;fill:white;">Hesabu</text>
                </g>
            </g>
            <g transform="matrix(1,0,0,1,0.530037,21.2876)">
                <g transform="matrix(0.8563,0,0,0.793269,-5817.17,-364.994)">
                    <path d="M6226.94,189.06C6228.46,189.274 6229.92,189.746 6231.29,190.474L6306.97,234.167C6314.1,238.64 6313.96,251.547 6304.51,254.265C6302.19,254.931 6299.66,254.808 6297.41,253.919C6296.75,253.655 6296.6,253.553 6295.97,253.219L6225.79,212.702L6155.61,253.219C6155.61,253.219 6154.08,254.059 6152.63,254.4C6145.5,256.081 6137.48,248.921 6139.44,241.041C6140.02,238.702 6141.39,236.568 6143.28,235.069C6143.84,234.625 6144.01,234.546 6144.61,234.167L6220.29,190.474C6221.88,189.629 6223.62,189.069 6225.41,189.007C6226.09,188.983 6226.26,189.013 6226.94,189.06Z" style="fill:white;"/>
                </g>
                <g transform="matrix(0.8563,0,0,-0.793269,-5817.17,90.2356)">
                    <path d="M6226.72,325.413C6231.58,324.698 6235.69,320.9 6236.4,316.08C6236.51,315.373 6236.49,315.192 6236.52,314.479L6236.52,286.322C6236.38,282.442 6234.36,278.883 6231.02,276.796L6172.9,243.239L6225.79,212.702L6296.07,253.276C6303.53,257.229 6314.61,250.64 6312.24,241.098C6311.66,238.758 6310.29,236.625 6308.4,235.126C6307.84,234.682 6307.67,234.603 6307.07,234.224L6231.29,190.474C6227.86,188.651 6223.77,188.625 6220.29,190.474L6145.4,233.713C6143.2,235.09 6142.74,235.713 6141.91,236.903C6138.72,241.419 6139.64,248.365 6144.08,251.875C6144.64,252.313 6144.8,252.391 6145.4,252.766L6214.52,292.673L6214.52,314.479L6214.55,315.282C6214.82,317.736 6215.08,318.124 6215.56,319.148C6217.48,323.246 6221.95,325.762 6226.72,325.413Z" style="fill:white;"/>
                </g>
                <g transform="matrix(4.40658,0,0,4.08223,-27920.6,-1218.72)">
                    <circle cx="6225.79" cy="257" r="3.487" style="fill:white;"/>
                </g>
                <g transform="matrix(2.76385,0,0,2.56041,-17693.8,-759.92)">
                    <circle cx="6225.79" cy="257" r="3.487" style="fill:white;fill-opacity:0.46;"/>
                </g>
            </g>
        </g>
    </g>
</svg>
