<?xml version="1.0" encoding="UTF-8" standalone="no"?>
<!DOCTYPE svg PUBLIC "-//W3C//DTD SVG 1.1//EN" "http://www.w3.org/Graphics/SVG/1.1/DTD/svg11.dtd">
<svg width="100%" height="100%" viewBox="0 0 321 313" version="1.1" xmlns="http://www.w3.org/2000/svg" xmlns:xlink="http://www.w3.org/1999/xlink" xml:space="preserve" xmlns:serif="http://www.serif.com/" style="fill-rule:evenodd;clip-rule:evenodd;stroke-linejoin:round;stroke-miterlimit:2;">
    <g transform="matrix(1,0,0,1,-4880,-228)">
        <g transform="matrix(1.16782,0,0,1.26061,5615.91,472.727)">
            <g transform="matrix(1,0,0,1,-6.84298,-2.87054)">
                <g transform="matrix(0.734443,0,0,0.680383,-1053.78,-210.044)">
                    <g>
                        <text x="578px" y="391.292px" style="font-family:'DINAlternate-Bold', 'DIN Alternate', sans-serif;font-weight:700;font-size:122.421px;">Hesabu</text>
                    </g>
                </g>
                <g transform="matrix(1,0,0,1,7.37302,24.1581)">
                    <g transform="matrix(0.8563,0,0,0.793269,-5817.17,-364.994)">
                        <path d="M6226.94,189.06C6228.46,189.274 6229.92,189.746 6231.29,190.474L6306.97,234.167C6309.19,235.561 6309.65,236.194 6310.49,237.402C6314.4,243.01 6311.61,252.221 6304.51,254.265C6301.68,255.079 6298.6,254.612 6295.97,253.22L6225.79,212.702L6155.61,253.22C6155.61,253.22 6154.08,254.059 6152.63,254.4C6144.39,256.342 6135.25,245.775 6141.09,237.402C6141.93,236.194 6142.39,235.561 6144.61,234.167L6220.29,190.474C6222.37,189.366 6222.82,189.355 6223.88,189.167C6224.89,188.99 6225.91,188.989 6226.94,189.06Z" style="fill:rgb(233,81,127);"/>
                    </g>
                    <g transform="matrix(0.8563,0,0,-0.793269,-5817.17,90.2356)">
                        <path d="M6226.72,325.413C6231.58,324.698 6235.69,320.9 6236.4,316.08C6236.51,315.373 6236.49,315.192 6236.52,314.479L6236.52,286.322C6236.38,282.419 6234.36,278.883 6231.02,276.796L6172.9,243.239L6225.79,212.702L6296.07,253.276C6298.39,254.504 6299.16,254.585 6300.63,254.71C6307.46,255.293 6314.01,248.222 6312.24,241.097C6311.53,238.237 6309.59,235.805 6307.07,234.224L6231.29,190.474C6227.86,188.651 6223.77,188.625 6220.29,190.474L6145.4,233.713C6143.2,235.09 6142.74,235.713 6141.91,236.903C6138.72,241.424 6139.64,248.365 6144.08,251.875C6144.64,252.313 6144.8,252.391 6145.4,252.766L6214.52,292.673L6214.52,314.479C6214.52,314.479 6214.6,316.714 6215.24,318.408C6216.68,322.155 6220.28,324.969 6224.32,325.413C6225.85,325.582 6226.23,325.449 6226.72,325.413Z" style="fill:rgb(233,81,127);"/>
                    </g>
                    <g transform="matrix(4.40658,0,0,4.08223,-27920.6,-1218.72)">
                        <circle cx="6225.79" cy="257" r="3.487" style="fill:rgb(233,81,127);"/>
                    </g>
                    <g transform="matrix(2.76385,0,0,2.56041,-17693.8,-759.92)">
                        <circle cx="6225.79" cy="257" r="3.487" style="fill:rgb(233,81,127);fill-opacity:0.46;"/>
                    </g>
                </g>
            </g>
        </g>
    </g>
</svg>
