<?xml version="1.0" encoding="UTF-8" standalone="no"?>
<!DOCTYPE svg PUBLIC "-//W3C//DTD SVG 1.1//EN" "http://www.w3.org/Graphics/SVG/1.1/DTD/svg11.dtd">
<svg width="100%" height="100%" viewBox="0 0 537 197" version="1.1" xmlns="http://www.w3.org/2000/svg" xmlns:xlink="http://www.w3.org/1999/xlink" xml:space="preserve" xmlns:serif="http://www.serif.com/" style="fill-rule:evenodd;clip-rule:evenodd;stroke-linejoin:round;stroke-miterlimit:2;">
    <g transform="matrix(1,0,0,1,-4771,-1241)">
        <g transform="matrix(1.16782,0,0,1.26061,5615.91,1421.94)">
            <g transform="matrix(1,0,0,1,6.29894,47.5962)">
                <g transform="matrix(0.734443,0,0,0.680383,-975.518,-350.09)">
                    <g>
                        <text x="578px" y="391.292px" style="font-family:'DINAlternate-Bold', 'DIN Alternate', sans-serif;font-weight:700;font-size:122.421px;">Hesabu</text>
                    </g>
                </g>
                <g transform="matrix(1,0,0,1,-169.366,24.1581)">
                    <g transform="matrix(0.8563,0,0,0.793269,-5817.17,-364.994)">
                        <path d="M6226.94,189.06C6228.46,189.274 6229.92,189.746 6231.29,190.474L6306.97,234.167C6314.39,238.819 6313.72,252.361 6303.73,254.458C6301.63,254.899 6299.41,254.709 6297.41,253.919C6296.75,253.655 6296.6,253.554 6295.97,253.22L6225.79,212.702L6155.61,253.22L6154.9,253.596C6152.5,254.651 6151.72,254.675 6150.24,254.692C6143.41,254.776 6137.39,247.19 6139.66,240.269C6140.49,237.723 6142.32,235.604 6144.61,234.167L6220.29,190.474C6221.65,189.749 6223.12,189.22 6224.64,189.06C6226.11,188.906 6226.47,189.027 6226.94,189.06Z" style="fill:rgb(233,81,127);"/>
                    </g>
                    <g transform="matrix(0.8563,0,0,0.793269,-5654.11,-1203.78)">
                        <path d="M6024.09,1317.77C6019.95,1314.48 6017.3,1309.4 6017.3,1303.72C6017.3,1293.81 6025.34,1285.77 6035.25,1285.77C6045.15,1285.77 6053.19,1293.81 6053.19,1303.72C6053.19,1309.55 6050.4,1314.73 6046.09,1318.01L6046.09,1344.92C6045.95,1348.83 6043.93,1352.37 6040.59,1354.45L5982.47,1388.01L6035.36,1418.55L6105.64,1377.97C6113.1,1374.02 6124.18,1380.61 6121.81,1390.15C6121.23,1392.49 6119.86,1394.62 6117.96,1396.12C6117.4,1396.57 6117.24,1396.64 6116.64,1397.02L6040.86,1440.77C6037.43,1442.6 6033.33,1442.62 6029.86,1440.77L5954.97,1397.53C5952.77,1396.16 5952.31,1395.53 5951.47,1394.35C5948.29,1389.83 5949.18,1382.9 5953.65,1379.37C5954.21,1378.93 5954.37,1378.86 5954.97,1378.48L6024.09,1338.57L6024.09,1317.77Z" style="fill:rgb(233,81,127);"/>
                    </g>
                    <g transform="matrix(2.76385,0,0,2.56041,-17693.8,-759.92)">
                        <circle cx="6225.79" cy="257" r="3.487" style="fill:rgb(233,81,127);fill-opacity:0.5;"/>
                    </g>
                </g>
            </g>
        </g>
    </g>
</svg>
